<?xml version="1.0" encoding="UTF-8"?>
<!DOCTYPE svg PUBLIC "-//W3C//DTD SVG 1.1//EN" "http://www.w3.org/Graphics/SVG/1.1/DTD/svg11.dtd">
<svg xmlns="http://www.w3.org/2000/svg" version="1.1" width="3508px" height="2481px" style="shape-rendering:geometricPrecision; text-rendering:geometricPrecision; image-rendering:optimizeQuality; fill-rule:evenodd; clip-rule:evenodd" xmlns:xlink="http://www.w3.org/1999/xlink">
<g><path style="opacity:0.986" fill="#7ebe40" d="M 638.5,451.5 C 643.952,451.144 647.785,453.477 650,458.5C 653.508,471.573 655.175,484.906 655,498.5C 689.681,540.185 728.514,577.352 771.5,610C 802.282,633.898 834.616,655.564 868.5,675C 925.828,706.332 987.162,722.666 1052.5,724C 1055.93,728.547 1057.77,733.714 1058,739.5C 1060.53,760.285 1058.53,780.618 1052,800.5C 1049.34,806.829 1045.5,812.329 1040.5,817C 980.518,857.976 922.518,901.642 866.5,948C 800.562,1003.6 740.395,1064.77 686,1131.5C 614.771,1225.57 557.104,1327.9 513,1438.5C 509.753,1447.57 506.919,1456.74 504.5,1466C 543.042,1485.96 583.709,1499.96 626.5,1508C 647.623,1512.1 668.789,1515.94 690,1519.5C 691.819,1521.13 693.152,1523.13 694,1525.5C 699.062,1546.71 699.729,1568.04 696,1589.5C 694.941,1592.62 693.608,1595.62 692,1598.5C 624.556,1672.11 563.889,1750.78 510,1834.5C 493.588,1865.66 476.921,1896.66 460,1927.5C 455.77,1934.12 450.937,1940.29 445.5,1946C 435.326,1953.34 427.826,1951.17 423,1939.5C 420.065,1929.94 419.732,1920.27 422,1910.5C 429.422,1880.32 440.755,1851.65 456,1824.5C 500.536,1739.91 555.036,1662.41 619.5,1592C 582.214,1583.68 545.881,1572.35 510.5,1558C 492.022,1549.27 474.355,1539.27 457.5,1528C 451.597,1524.08 448.097,1518.58 447,1511.5C 445.394,1497.76 446.061,1484.09 449,1470.5C 453.251,1450.75 458.918,1431.41 466,1412.5C 490.395,1349.54 519.228,1288.71 552.5,1230C 456.801,1184.32 361.134,1138.32 265.5,1092C 232.344,1075.59 199.344,1058.92 166.5,1042C 161.171,1037.85 158.005,1032.35 157,1025.5C 153.559,1004.14 157.225,984.144 168,965.5C 170.5,963 173,960.5 175.5,958C 205.5,940 235.5,922 265.5,904C 329.134,864.38 388.8,819.38 444.5,769C 504.668,713.118 552.502,648.285 588,574.5C 602.509,542.137 612.842,508.471 619,473.5C 622.254,463.091 628.754,455.757 638.5,451.5 Z M 635.5,595.5 C 661.328,620.494 687.328,645.328 713.5,670C 732.916,687.42 752.916,704.087 773.5,720C 820.199,751.362 868.866,779.696 919.5,805C 788.047,906.758 678.214,1027.59 590,1167.5C 589.898,1159.32 587.898,1151.65 584,1144.5C 579.594,1140.71 574.761,1137.54 569.5,1135C 470.473,1087.55 371.14,1040.89 271.5,995C 352.744,946.724 426.244,888.224 492,819.5C 541.111,766.376 582.445,707.71 616,643.5C 623.583,627.912 630.083,611.912 635.5,595.5 Z"/></g>
<g><path style="opacity:0.976" fill="#2e3092" d="M 1113.5,986.5 C 1125.17,986.5 1136.83,986.5 1148.5,986.5C 1141.22,1042.6 1133.72,1098.6 1126,1154.5C 1151.28,1128.73 1181.11,1121.89 1215.5,1134C 1237.77,1145.96 1251.27,1164.46 1256,1189.5C 1262.53,1235.06 1251.2,1275.39 1222,1310.5C 1198.87,1335.21 1170.71,1344.04 1137.5,1337C 1122.62,1332.82 1111.46,1323.98 1104,1310.5C 1103,1317.88 1101.83,1325.21 1100.5,1332.5C 1088.85,1333.5 1077.19,1333.83 1065.5,1333.5C 1081.31,1217.81 1097.31,1102.14 1113.5,986.5 Z M 1172.5,1166.5 C 1205.2,1168.2 1221.53,1185.54 1221.5,1218.5C 1221.65,1245.9 1211.99,1269.06 1192.5,1288C 1174.73,1302.05 1155.73,1304.05 1135.5,1294C 1120.37,1281.73 1113.04,1265.73 1113.5,1246C 1113.79,1224.32 1120.29,1204.82 1133,1187.5C 1143.65,1175.59 1156.82,1168.59 1172.5,1166.5 Z"/></g>
<g><path style="opacity:0.975" fill="#2e3092" d="M 2893.5,986.5 C 2905.17,986.5 2916.83,986.5 2928.5,986.5C 2912.5,1102.17 2896.5,1217.83 2880.5,1333.5C 2868.5,1333.67 2856.5,1333.5 2844.5,1333C 2845.99,1326.25 2846.82,1319.42 2847,1312.5C 2820.63,1339.84 2789.8,1346.34 2754.5,1332C 2732.18,1317.21 2719.68,1296.38 2717,1269.5C 2712.81,1229.92 2722.47,1194.26 2746,1162.5C 2772.19,1131.88 2804.69,1122.05 2843.5,1133C 2854.29,1137.48 2862.79,1144.64 2869,1154.5C 2877.49,1098.56 2885.66,1042.56 2893.5,986.5 Z M 2811.5,1166.5 C 2841.16,1166.32 2857.32,1180.99 2860,1210.5C 2861.89,1241.2 2851.72,1267.04 2829.5,1288C 2810.85,1302.5 2791.18,1304.16 2770.5,1293C 2757.57,1280.91 2751.24,1265.91 2751.5,1248C 2751.78,1225.48 2758.62,1205.32 2772,1187.5C 2782.65,1175.59 2795.82,1168.59 2811.5,1166.5 Z"/></g>
<g><path style="opacity:0.96" fill="#2e3092" d="M 1330.5,1035.5 C 1345.67,1035.67 1353.67,1043.34 1354.5,1058.5C 1353.19,1075.48 1344.19,1085.48 1327.5,1088.5C 1314.71,1086.54 1308.05,1079.04 1307.5,1066C 1308.32,1050.47 1315.99,1040.3 1330.5,1035.5 Z"/></g>
<g><path style="opacity:0.96" fill="#2e3092" d="M 2987.5,1035.5 C 3002.43,1035.59 3010.43,1043.09 3011.5,1058C 3010.4,1075.26 3001.4,1085.43 2984.5,1088.5C 2971.68,1086.51 2965.01,1079.01 2964.5,1066C 2965.25,1050.44 2972.92,1040.27 2987.5,1035.5 Z"/></g>
<g><path style="opacity:0.976" fill="#2e3092" d="M 1591.5,1056.5 C 1603.17,1056.5 1614.83,1056.5 1626.5,1056.5C 1623.26,1082.51 1619.93,1108.51 1616.5,1134.5C 1625.17,1134.5 1633.83,1134.5 1642.5,1134.5C 1641.07,1146.49 1639.74,1158.49 1638.5,1170.5C 1629.5,1170.5 1620.5,1170.5 1611.5,1170.5C 1603.74,1224.82 1596.07,1279.15 1588.5,1333.5C 1576.83,1333.5 1565.17,1333.5 1553.5,1333.5C 1560.83,1279.17 1568.17,1224.83 1575.5,1170.5C 1568.83,1170.5 1562.17,1170.5 1555.5,1170.5C 1557.33,1158.53 1559,1146.53 1560.5,1134.5C 1567.17,1134.5 1573.83,1134.5 1580.5,1134.5C 1584.35,1108.53 1588.02,1082.53 1591.5,1056.5 Z"/></g>
<g><path style="opacity:0.977" fill="#2e3092" d="M 2283.5,1056.5 C 2295.17,1056.5 2306.83,1056.5 2318.5,1056.5C 2315.07,1082.49 2311.74,1108.49 2308.5,1134.5C 2317.17,1134.5 2325.83,1134.5 2334.5,1134.5C 2333.14,1146.18 2331.64,1157.84 2330,1169.5C 2320.82,1169.84 2311.82,1170.84 2303,1172.5C 2295.36,1226.16 2287.86,1279.82 2280.5,1333.5C 2268.83,1333.5 2257.17,1333.5 2245.5,1333.5C 2252.65,1279.14 2259.98,1224.81 2267.5,1170.5C 2260.83,1170.5 2254.17,1170.5 2247.5,1170.5C 2249.17,1158.5 2250.83,1146.5 2252.5,1134.5C 2259.17,1134.5 2265.83,1134.5 2272.5,1134.5C 2276.17,1108.5 2279.83,1082.5 2283.5,1056.5 Z"/></g>
<g><path style="opacity:0.973" fill="#2e3092" d="M 1466.5,1128.5 C 1503.62,1124.79 1524.12,1141.45 1528,1178.5C 1528.67,1184.5 1528.67,1190.5 1528,1196.5C 1521.88,1242.18 1515.71,1287.85 1509.5,1333.5C 1497.48,1333.83 1485.48,1333.5 1473.5,1332.5C 1479.66,1290.9 1485.49,1249.23 1491,1207.5C 1492.78,1195.6 1491.12,1184.27 1486,1173.5C 1480.24,1167.3 1473.07,1164.3 1464.5,1164.5C 1455.58,1164.86 1447.58,1167.7 1440.5,1173C 1431.02,1182.13 1424.18,1192.96 1420,1205.5C 1416.78,1215.29 1414.44,1225.29 1413,1235.5C 1408.54,1268.19 1404.04,1300.85 1399.5,1333.5C 1387.83,1333.5 1376.17,1333.5 1364.5,1333.5C 1373.42,1267.16 1382.42,1200.82 1391.5,1134.5C 1403.52,1134.17 1415.52,1134.5 1427.5,1135.5C 1426.11,1140.42 1425.61,1145.42 1426,1150.5C 1437.07,1138.55 1450.57,1131.22 1466.5,1128.5 Z"/></g>
<g><path style="opacity:0.975" fill="#2e3092" d="M 1722.5,1128.5 C 1747.3,1125.04 1768.13,1132.37 1785,1150.5C 1786,1152.17 1787,1153.83 1788,1155.5C 1789.16,1148.53 1790,1141.53 1790.5,1134.5C 1802.5,1134.5 1814.5,1134.5 1826.5,1134.5C 1817.38,1200.16 1808.21,1265.83 1799,1331.5C 1787.42,1333.47 1775.59,1334.13 1763.5,1333.5C 1764.3,1326.09 1765.13,1318.75 1766,1311.5C 1745.99,1334.48 1720.83,1343.31 1690.5,1338C 1668.03,1332.87 1652.2,1319.7 1643,1298.5C 1629.66,1258.8 1632.32,1220.13 1651,1182.5C 1666.44,1153.2 1690.28,1135.2 1722.5,1128.5 Z M 1730.5,1166.5 C 1757.77,1166.27 1773.6,1179.6 1778,1206.5C 1781.25,1239.45 1770.75,1266.95 1746.5,1289C 1726.83,1303.36 1706.83,1304.03 1686.5,1291C 1677.75,1282.33 1672.58,1271.83 1671,1259.5C 1668.06,1234.28 1673.72,1211.28 1688,1190.5C 1699.12,1176.86 1713.29,1168.86 1730.5,1166.5 Z"/></g>
<g><path style="opacity:0.974" fill="#2e3092" d="M 1947.5,1128.5 C 1981.41,1124.6 2001.57,1139.27 2008,1172.5C 2008.67,1182.83 2008.67,1193.17 2008,1203.5C 2002.09,1246.51 1996.09,1289.51 1990,1332.5C 1978.25,1333.49 1966.41,1333.82 1954.5,1333.5C 1960.83,1288.21 1966.83,1242.88 1972.5,1197.5C 1971.95,1169.88 1958.29,1159.71 1931.5,1167C 1916.26,1175.27 1906.1,1187.77 1901,1204.5C 1897.88,1213.98 1895.55,1223.64 1894,1233.5C 1889.36,1266.82 1884.86,1300.16 1880.5,1333.5C 1868.83,1333.5 1857.17,1333.5 1845.5,1333.5C 1854.03,1267.1 1863.03,1200.77 1872.5,1134.5C 1884.17,1134.5 1895.83,1134.5 1907.5,1134.5C 1907.04,1140.22 1906.54,1145.89 1906,1151.5C 1917.23,1138.97 1931.06,1131.31 1947.5,1128.5 Z"/></g>
<g><path style="opacity:0.975" fill="#2e3092" d="M 2120.5,1128.5 C 2138.75,1126.32 2155.75,1129.82 2171.5,1139C 2177.38,1143.21 2182.21,1148.38 2186,1154.5C 2187.21,1148.16 2188.38,1141.83 2189.5,1135.5C 2201.15,1134.5 2212.81,1134.17 2224.5,1134.5C 2214.51,1209.23 2204.01,1283.9 2193,1358.5C 2177.64,1426.78 2135.48,1454.28 2066.5,1441C 2043.89,1434.72 2029.72,1420.22 2024,1397.5C 2022.68,1389.56 2022.18,1381.56 2022.5,1373.5C 2034.5,1373.5 2046.5,1373.5 2058.5,1373.5C 2059.03,1392.86 2069.03,1403.36 2088.5,1405C 2125.07,1410.04 2147.91,1394.87 2157,1359.5C 2160.27,1343.92 2162.61,1328.25 2164,1312.5C 2140.94,1336.89 2113.11,1344.73 2080.5,1336C 2061.03,1328.53 2047.53,1315.03 2040,1295.5C 2027.33,1253.18 2032,1212.85 2054,1174.5C 2065.36,1157.48 2080.19,1144.31 2098.5,1135C 2105.81,1132.28 2113.14,1130.11 2120.5,1128.5 Z M 2128.5,1166.5 C 2154.9,1166.07 2170.73,1178.74 2176,1204.5C 2179.77,1236.19 2170.61,1263.35 2148.5,1286C 2133.35,1299.41 2116.01,1303.41 2096.5,1298C 2079.49,1289.5 2070.32,1275.66 2069,1256.5C 2066.63,1231.31 2072.97,1208.64 2088,1188.5C 2098.81,1176.02 2112.31,1168.68 2128.5,1166.5 Z"/></g>
<g><path style="opacity:0.974" fill="#2e3092" d="M 2422.5,1128.5 C 2465.82,1125.39 2494.99,1144.06 2510,1184.5C 2522.48,1244 2503.98,1291.17 2454.5,1326C 2426.12,1342.28 2397.12,1343.62 2367.5,1330C 2343.4,1313.99 2329.9,1291.49 2327,1262.5C 2323.53,1211.28 2342.7,1171.11 2384.5,1142C 2396.48,1135.18 2409.15,1130.68 2422.5,1128.5 Z M 2426.5,1166.5 C 2452.67,1166.85 2469.51,1179.52 2477,1204.5C 2482.39,1236.67 2473.22,1263.84 2449.5,1286C 2429.33,1302.37 2407.66,1304.7 2384.5,1293C 2372.42,1284.23 2365.25,1272.4 2363,1257.5C 2359.26,1226.38 2369.09,1200.55 2392.5,1180C 2402.73,1172.43 2414.07,1167.93 2426.5,1166.5 Z"/></g>
<g><path style="opacity:0.971" fill="#2e3092" d="M 2618.5,1128.5 C 2666.75,1125.6 2694.59,1147.93 2702,1195.5C 2702.91,1211.27 2702.08,1226.93 2699.5,1242.5C 2654.5,1242.5 2609.5,1242.5 2564.5,1242.5C 2563.14,1290.32 2585.47,1308.16 2631.5,1296C 2637,1293.75 2642,1290.75 2646.5,1287C 2652.76,1280.58 2658.43,1273.75 2663.5,1266.5C 2672.71,1272.27 2681.71,1278.27 2690.5,1284.5C 2662.86,1332.32 2622.52,1348.49 2569.5,1333C 2548.28,1321.75 2535.44,1304.25 2531,1280.5C 2523.63,1238.68 2532.29,1200.68 2557,1166.5C 2573.1,1146.54 2593.6,1133.87 2618.5,1128.5 Z M 2622.5,1166.5 C 2652.52,1166.52 2667.52,1181.52 2667.5,1211.5C 2635.17,1211.5 2602.83,1211.5 2570.5,1211.5C 2578.65,1185.67 2595.98,1170.67 2622.5,1166.5 Z"/></g>
<g><path style="opacity:0.975" fill="#2e3092" d="M 3108.5,1128.5 C 3154.26,1124.95 3184.09,1144.95 3198,1188.5C 3208.24,1246.5 3189.4,1292.33 3141.5,1326C 3110.9,1343.49 3080.24,1343.83 3049.5,1327C 3020.39,1303.05 3008.56,1272.21 3014,1234.5C 3019.43,1192.44 3040.27,1160.61 3076.5,1139C 3086.86,1134.16 3097.53,1130.66 3108.5,1128.5 Z M 3112.5,1166.5 C 3142.36,1167.17 3159.86,1182.17 3165,1211.5C 3167.68,1244.63 3155.84,1271.13 3129.5,1291C 3109.04,1303.59 3088.7,1303.59 3068.5,1291C 3054.73,1278.45 3048.06,1262.78 3048.5,1244C 3049.74,1213.51 3063.07,1190.17 3088.5,1174C 3096.28,1170.35 3104.28,1167.85 3112.5,1166.5 Z"/></g>
<g><path style="opacity:0.972" fill="#2e3092" d="M 3305.5,1128.5 C 3354.63,1125.8 3382.46,1148.8 3389,1197.5C 3389.52,1212.57 3388.69,1227.57 3386.5,1242.5C 3341.5,1242.5 3296.5,1242.5 3251.5,1242.5C 3249.45,1259.43 3253.28,1274.76 3263,1288.5C 3274.26,1298.58 3287.42,1302.42 3302.5,1300C 3315.15,1298.51 3326.15,1293.51 3335.5,1285C 3340.95,1279.26 3345.78,1273.09 3350,1266.5C 3359.23,1272.2 3368.4,1278.04 3377.5,1284C 3350.73,1331.22 3311.06,1347.88 3258.5,1334C 3231.65,1320.17 3217.48,1298 3216,1267.5C 3211.8,1221.75 3225.97,1182.91 3258.5,1151C 3272.16,1139.17 3287.83,1131.67 3305.5,1128.5 Z M 3308.5,1166.5 C 3338.7,1166.37 3354.04,1181.37 3354.5,1211.5C 3321.83,1211.67 3289.16,1211.5 3256.5,1211C 3265.36,1186.1 3282.69,1171.26 3308.5,1166.5 Z"/></g>
<g><path style="opacity:0.972" fill="#2e3092" d="M 1303.5,1134.5 C 1315.17,1134.5 1326.83,1134.5 1338.5,1134.5C 1329.59,1200.84 1320.59,1267.18 1311.5,1333.5C 1299.48,1333.83 1287.48,1333.5 1275.5,1332.5C 1284.93,1266.52 1294.26,1200.52 1303.5,1134.5 Z"/></g>
<g><path style="opacity:0.974" fill="#2e3092" d="M 2960.5,1134.5 C 2972.17,1134.5 2983.83,1134.5 2995.5,1134.5C 2981.41,1236.49 2967.41,1338.49 2953.5,1440.5C 2941.5,1440.5 2929.5,1440.5 2917.5,1440.5C 2931.67,1338.44 2946.01,1236.44 2960.5,1134.5 Z"/></g>
<g><path style="opacity:0.947" fill="#929597" d="M 1456.5,1535.5 C 1461.5,1535.5 1466.5,1535.5 1471.5,1535.5C 1471.5,1590.83 1471.5,1646.17 1471.5,1701.5C 1466.5,1701.5 1461.5,1701.5 1456.5,1701.5C 1456.5,1646.17 1456.5,1590.83 1456.5,1535.5 Z"/></g>
<g><path style="opacity:0.947" fill="#929597" d="M 1496.5,1535.5 C 1501.5,1535.5 1506.5,1535.5 1511.5,1535.5C 1511.33,1563.17 1511.5,1590.84 1512,1618.5C 1521.44,1606 1533.94,1601.5 1549.5,1605C 1565.68,1610.51 1575.51,1621.68 1579,1638.5C 1583.27,1658.23 1579.6,1676.23 1568,1692.5C 1553.2,1706.26 1537.04,1708.09 1519.5,1698C 1516.63,1695.46 1514.13,1692.63 1512,1689.5C 1511.5,1693.49 1511.33,1697.49 1511.5,1701.5C 1506.5,1701.5 1501.5,1701.5 1496.5,1701.5C 1496.5,1646.17 1496.5,1590.83 1496.5,1535.5 Z M 1532.5,1620.5 C 1546.19,1618.92 1556.02,1624.26 1562,1636.5C 1567.62,1651.74 1565.96,1666.07 1557,1679.5C 1545.37,1690.69 1533.54,1691.03 1521.5,1680.5C 1512.97,1670.36 1509.8,1658.7 1512,1645.5C 1514.06,1632.97 1520.89,1624.64 1532.5,1620.5 Z"/></g>
<g><path style="opacity:0.944" fill="#929597" d="M 1126.5,1545.5 C 1128.34,1546.12 1129.5,1547.46 1130,1549.5C 1149.64,1600.1 1169.48,1650.6 1189.5,1701C 1183.47,1701.83 1177.47,1701.66 1171.5,1700.5C 1166.12,1685.53 1160.46,1670.7 1154.5,1656C 1136.49,1655.17 1118.49,1655.33 1100.5,1656.5C 1094.72,1671.06 1089.22,1685.72 1084,1700.5C 1078.26,1701.47 1072.43,1701.81 1066.5,1701.5C 1086.5,1649.5 1106.5,1597.5 1126.5,1545.5 Z M 1127.5,1585.5 C 1134.86,1603.24 1141.86,1621.24 1148.5,1639.5C 1134.51,1640.67 1120.51,1640.83 1106.5,1640C 1113.41,1621.78 1120.41,1603.62 1127.5,1585.5 Z"/></g>
<g><path style="opacity:0.941" fill="#929597" d="M 1797.5,1546.5 C 1815.39,1544.53 1832.05,1548.03 1847.5,1557C 1848.33,1557.83 1849.17,1558.67 1850,1559.5C 1850.67,1566.17 1850.67,1572.83 1850,1579.5C 1826.78,1560.35 1802.28,1558.52 1776.5,1574C 1753.66,1595.18 1747.16,1620.68 1757,1650.5C 1769.13,1679.15 1790.63,1690.99 1821.5,1686C 1832.11,1683.53 1841.44,1678.7 1849.5,1671.5C 1850.83,1678.5 1850.83,1685.5 1849.5,1692.5C 1822.53,1708.22 1795.53,1708.39 1768.5,1693C 1746.99,1675.81 1736.32,1653.31 1736.5,1625.5C 1736.79,1590.03 1752.79,1564.86 1784.5,1550C 1788.93,1548.68 1793.26,1547.52 1797.5,1546.5 Z"/></g>
<g><path style="opacity:0.93" fill="#929597" d="M 1257.5,1549.5 C 1262.83,1549.5 1268.17,1549.5 1273.5,1549.5C 1273.33,1572.17 1273.5,1594.84 1274,1617.5C 1291.81,1594.73 1309.97,1572.23 1328.5,1550C 1334.83,1549.33 1341.17,1549.33 1347.5,1550C 1328.54,1573.96 1309.21,1597.62 1289.5,1621C 1309.62,1647.41 1329.62,1673.91 1349.5,1700.5C 1342.83,1701.83 1336.17,1701.83 1329.5,1700.5C 1310.81,1675.64 1292.31,1650.64 1274,1625.5C 1273.5,1650.83 1273.33,1676.16 1273.5,1701.5C 1268.17,1701.5 1262.83,1701.5 1257.5,1701.5C 1257.5,1650.83 1257.5,1600.17 1257.5,1549.5 Z"/></g>
<g><path style="opacity:0.936" fill="#929597" d="M 1378.5,1604.5 C 1390.63,1602.53 1401.63,1605.03 1411.5,1612C 1413.33,1614.5 1415.17,1617 1417,1619.5C 1417.5,1615.18 1417.67,1610.85 1417.5,1606.5C 1422.5,1606.5 1427.5,1606.5 1432.5,1606.5C 1432.5,1638.17 1432.5,1669.83 1432.5,1701.5C 1427.5,1701.5 1422.5,1701.5 1417.5,1701.5C 1417.67,1697.15 1417.5,1692.82 1417,1688.5C 1407.18,1702.97 1393.68,1707.8 1376.5,1703C 1360.95,1695.77 1351.78,1683.6 1349,1666.5C 1345.82,1648.71 1349.16,1632.38 1359,1617.5C 1364.52,1611.51 1371.02,1607.17 1378.5,1604.5 Z M 1384.5,1620.5 C 1398.19,1618.92 1408.02,1624.26 1414,1636.5C 1419.23,1651.32 1417.56,1665.32 1409,1678.5C 1395.68,1692.02 1382.68,1691.69 1370,1677.5C 1362.98,1664.81 1361.64,1651.47 1366,1637.5C 1369.83,1629.16 1376,1623.5 1384.5,1620.5 Z"/></g>
<g><path style="opacity:0.93" fill="#929597" d="M 1622.5,1604.5 C 1649.67,1601.85 1665.83,1613.85 1671,1640.5C 1671.5,1646.16 1671.67,1651.82 1671.5,1657.5C 1649.5,1657.33 1627.5,1657.5 1605.5,1658C 1606.36,1667.05 1609.7,1675.05 1615.5,1682C 1629.51,1691.1 1642.34,1689.6 1654,1677.5C 1654.91,1675.34 1656.08,1673.34 1657.5,1671.5C 1661.97,1673.83 1665.97,1676.66 1669.5,1680C 1656.59,1703.53 1637.59,1710.19 1612.5,1700C 1602.21,1693.61 1595.71,1684.44 1593,1672.5C 1588.23,1653.65 1590.9,1635.99 1601,1619.5C 1606.82,1612.36 1613.98,1607.36 1622.5,1604.5 Z M 1626.5,1620.5 C 1643.92,1619.25 1653.92,1627.25 1656.5,1644.5C 1639.83,1644.5 1623.17,1644.5 1606.5,1644.5C 1608.04,1632.03 1614.7,1624.03 1626.5,1620.5 Z"/></g>
<g><path style="opacity:0.943" fill="#929597" d="M 1893.5,1604.5 C 1922.7,1601.87 1940.54,1614.87 1947,1643.5C 1950.92,1669.82 1941.42,1689.32 1918.5,1702C 1886.46,1708.39 1866.96,1695.56 1860,1663.5C 1856.23,1635 1867.4,1615.34 1893.5,1604.5 Z M 1897.5,1620.5 C 1916.03,1619.18 1927.53,1627.51 1932,1645.5C 1934.99,1662.01 1929.82,1675.17 1916.5,1685C 1894.67,1691.66 1880.83,1683.83 1875,1661.5C 1872.17,1641.8 1879.67,1628.14 1897.5,1620.5 Z"/></g>
<g><path style="opacity:0.942" fill="#929597" d="M 1994.5,1604.5 C 2008.47,1601.42 2018.64,1606.08 2025,1618.5C 2032.43,1606.23 2043.27,1601.73 2057.5,1605C 2068.47,1610.33 2074.3,1619.16 2075,1631.5C 2075.5,1654.83 2075.67,1678.16 2075.5,1701.5C 2070.5,1701.5 2065.5,1701.5 2060.5,1701.5C 2060.94,1678.46 2060.44,1655.46 2059,1632.5C 2056.06,1620.95 2048.9,1617.11 2037.5,1621C 2032.71,1625.07 2029.88,1630.24 2029,1636.5C 2027.59,1658.13 2027.09,1679.8 2027.5,1701.5C 2022.5,1701.5 2017.5,1701.5 2012.5,1701.5C 2012.67,1679.16 2012.5,1656.83 2012,1634.5C 2011.06,1622.88 2004.89,1618.05 1993.5,1620C 1986.21,1623.98 1982.04,1630.14 1981,1638.5C 1979.6,1659.47 1979.1,1680.47 1979.5,1701.5C 1974.5,1701.5 1969.5,1701.5 1964.5,1701.5C 1964.5,1669.83 1964.5,1638.17 1964.5,1606.5C 1969.5,1606.5 1974.5,1606.5 1979.5,1606.5C 1979.33,1609.85 1979.5,1613.18 1980,1616.5C 1983.4,1610.72 1988.23,1606.72 1994.5,1604.5 Z"/></g>
<g><path style="opacity:0.948" fill="#929597" d="M 2132.5,1604.5 C 2159.12,1601.61 2175.28,1613.27 2181,1639.5C 2184.35,1657.37 2181.35,1674.04 2172,1689.5C 2158.06,1705.7 2141.56,1708.87 2122.5,1699C 2119.3,1696.13 2116.46,1692.96 2114,1689.5C 2113.5,1710.83 2113.33,1732.16 2113.5,1753.5C 2108.5,1753.5 2103.5,1753.5 2098.5,1753.5C 2098.5,1704.5 2098.5,1655.5 2098.5,1606.5C 2103.5,1606.5 2108.5,1606.5 2113.5,1606.5C 2113.33,1610.18 2113.5,1613.85 2114,1617.5C 2118.99,1611.27 2125.16,1606.94 2132.5,1604.5 Z M 2133.5,1620.5 C 2151.25,1619.08 2162.08,1627.08 2166,1644.5C 2167.85,1655.77 2166.18,1666.43 2161,1676.5C 2150.99,1688.97 2139.16,1691.14 2125.5,1683C 2114.78,1671.96 2110.94,1658.79 2114,1643.5C 2116.07,1631.94 2122.57,1624.27 2133.5,1620.5 Z"/></g>
<g><path style="opacity:0.944" fill="#929597" d="M 2223.5,1604.5 C 2239.05,1601.5 2251.55,1606.16 2261,1618.5C 2261.5,1614.51 2261.67,1610.51 2261.5,1606.5C 2266.5,1606.5 2271.5,1606.5 2276.5,1606.5C 2276.5,1638.17 2276.5,1669.83 2276.5,1701.5C 2271.5,1701.5 2266.5,1701.5 2261.5,1701.5C 2261.67,1697.15 2261.5,1692.82 2261,1688.5C 2254.72,1699.39 2245.22,1704.73 2232.5,1704.5C 2214.17,1703.25 2202,1693.91 2196,1676.5C 2189.79,1656.56 2191.79,1637.56 2202,1619.5C 2205.17,1616.33 2208.33,1613.17 2211.5,1610C 2215.48,1607.84 2219.48,1606 2223.5,1604.5 Z M 2229.5,1620.5 C 2247.18,1619.67 2257.68,1628.01 2261,1645.5C 2263.64,1660.91 2259.14,1673.74 2247.5,1684C 2228.07,1692.04 2215.24,1685.87 2209,1665.5C 2205.39,1650.6 2208.56,1637.43 2218.5,1626C 2221.99,1623.59 2225.66,1621.75 2229.5,1620.5 Z"/></g>
<g><path style="opacity:0.947" fill="#929597" d="M 2333.5,1604.5 C 2353.47,1601.4 2365.31,1609.73 2369,1629.5C 2369.5,1653.5 2369.67,1677.5 2369.5,1701.5C 2364.5,1701.5 2359.5,1701.5 2354.5,1701.5C 2354.67,1679.5 2354.5,1657.5 2354,1635.5C 2350.2,1619.78 2341.03,1615.62 2326.5,1623C 2320.83,1629 2317.66,1636.17 2317,1644.5C 2316.5,1663.5 2316.33,1682.5 2316.5,1701.5C 2311.5,1701.5 2306.5,1701.5 2301.5,1701.5C 2301.5,1669.83 2301.5,1638.17 2301.5,1606.5C 2306.5,1606.5 2311.5,1606.5 2316.5,1606.5C 2316.33,1610.18 2316.5,1613.85 2317,1617.5C 2320.96,1611.02 2326.46,1606.69 2333.5,1604.5 Z"/></g>
<g><path style="opacity:0.933" fill="#929597" d="M 2377.5,1606.5 C 2383.17,1606.5 2388.83,1606.5 2394.5,1606.5C 2402.58,1629.4 2411.24,1652.07 2420.5,1674.5C 2429.1,1652.03 2437.1,1629.37 2444.5,1606.5C 2450.21,1606.17 2455.87,1606.5 2461.5,1607.5C 2443.43,1656.05 2425.76,1704.72 2408.5,1753.5C 2402.83,1753.5 2397.17,1753.5 2391.5,1753.5C 2398.34,1734.31 2405.34,1715.14 2412.5,1696C 2400.68,1666.2 2389.01,1636.37 2377.5,1606.5 Z"/></g>
</svg>
