<svg width="33" height="461" viewBox="0 0 33 461" fill="none" xmlns="http://www.w3.org/2000/svg">
<path d="M17.9469 456.327C-1.43763 467.43 -25.5355 453.197 -25.169 430.861L-18.3926 17.9211C-18.196 5.94302 -6.57721 -2.50806 4.87914 0.994141L17.7524 4.9295C32.7793 9.52322 31.3238 31.255 15.8185 33.8038C9.62896 34.8213 4.74483 39.6157 3.61279 45.7853L-2.1354 77.1129C-3.68563 85.5617 -3.03311 94.2673 -0.240736 102.391L6.35331 121.573C10.0106 132.213 9.97284 143.774 6.24623 154.389L-1.67725 176.959C-3.54561 182.281 -4.5 187.881 -4.5 193.522L-4.5 250.522C-4.5 258.715 -2.48675 266.782 1.36266 274.015L2.81684 276.747C8.72141 287.84 10.2321 300.75 7.04811 312.907L1 336L-3.10854 364.386C-3.90717 369.904 -0.495625 375.181 4.85205 376.758C14.8593 379.709 15.8135 393.588 6.23867 397.733C2.94898 399.156 0.543695 402.074 -0.226505 405.575L-0.602818 407.286C-2.60443 416.384 4.32229 425 13.6381 425H22.1112C25.2089 425 28.1466 426.376 30.1298 428.756C32.7846 431.941 33.3017 436.397 31.4471 440.106L28.3444 446.311C26.4895 450.021 23.58 453.1 19.9811 455.161L17.9469 456.327Z" fill="url(#paint0_linear_309_1404)"/>
<defs>
<linearGradient id="paint0_linear_309_1404" x1="-151" y1="213" x2="78.5" y2="237.75" gradientUnits="userSpaceOnUse">
<stop stop-color="#FB0000"/>
<stop offset="1" stop-color="#FFA447"/>
</linearGradient>
</defs>
</svg>
