<svg width="46" height="461" viewBox="0 0 46 461" fill="none" xmlns="http://www.w3.org/2000/svg">
<path d="M15.5531 4.17346C34.9376 -6.93029 59.0355 7.30287 58.669 29.6394L51.8926 442.579C51.696 454.557 40.0772 463.008 28.6209 459.506L15.7476 455.57C0.720672 450.977 2.17617 429.245 17.6815 426.696C23.871 425.679 28.7552 420.884 29.8872 414.715L35.6354 383.387C37.1856 374.938 36.5331 366.233 33.7407 358.109L27.1467 338.927C23.4894 328.287 23.5272 316.726 27.2538 306.11L35.1772 283.541C37.0456 278.219 38 272.619 38 266.978V209.978C38 201.785 35.9868 193.718 32.1373 186.485L30.6832 183.753C24.7786 172.66 23.2679 159.75 26.4519 147.593L32.5 124.5L36.6085 96.1137C37.4072 90.5959 33.9956 85.3192 28.648 83.7423C18.6407 80.7915 17.6865 66.9118 27.2613 62.7675C30.551 61.3436 32.9563 58.4259 33.7265 54.925L34.1028 53.2145C36.1044 44.1162 29.1777 35.5 19.8619 35.5H11.3888C8.29109 35.5 5.35338 34.124 3.37024 31.7443C0.715435 28.5585 0.198353 24.1033 2.05292 20.3942L5.15563 14.1887C7.01046 10.4791 9.92002 7.40018 13.5189 5.33868L15.5531 4.17346Z" fill="url(#paint0_linear_309_1405)"/>
<defs>
<linearGradient id="paint0_linear_309_1405" x1="209.5" y1="223" x2="15" y2="228" gradientUnits="userSpaceOnUse">
<stop stop-color="#FF004D"/>
<stop offset="1" stop-color="#FFA447"/>
</linearGradient>
</defs>
</svg>
