<svg width="50" height="50" viewBox="0 0 50 50" fill="none" xmlns="http://www.w3.org/2000/svg">
<circle cx="25" cy="25" r="25" fill="#F06868"/>
<path d="M25.0554 34.2386C23.8509 34.2386 22.777 34.017 21.8338 33.5739C20.8963 33.1307 20.152 32.5199 19.6009 31.7415C19.0497 30.9631 18.7628 30.071 18.7401 29.0653H22.3196C22.3594 29.7415 22.6435 30.2898 23.1719 30.7102C23.7003 31.1307 24.3281 31.3409 25.0554 31.3409C25.6349 31.3409 26.1463 31.2131 26.5895 30.9574C27.0384 30.696 27.3878 30.3352 27.6378 29.875C27.8935 29.4091 28.0213 28.875 28.0213 28.2727C28.0213 27.6591 27.8906 27.1193 27.6293 26.6534C27.3736 26.1875 27.0185 25.8239 26.5639 25.5625C26.1094 25.3011 25.5895 25.1676 25.0043 25.1619C24.4929 25.1619 23.9957 25.267 23.5128 25.4773C23.0355 25.6875 22.6634 25.9744 22.3963 26.3381L19.1151 25.75L19.9418 16.5455H30.6122V19.5625H22.9844L22.5327 23.9347H22.6349C22.9418 23.5028 23.4048 23.1449 24.0241 22.8608C24.6435 22.5767 25.3366 22.4347 26.1037 22.4347C27.1548 22.4347 28.0923 22.6818 28.9162 23.1761C29.7401 23.6705 30.3906 24.3494 30.8679 25.2131C31.3452 26.071 31.581 27.0597 31.5753 28.179C31.581 29.3551 31.3082 30.4006 30.7571 31.3153C30.2116 32.2244 29.4474 32.9403 28.4645 33.4631C27.4872 33.9801 26.3509 34.2386 25.0554 34.2386Z" fill="white"/>
</svg>
