<svg width="50" height="50" viewBox="0 0 50 50" fill="none" xmlns="http://www.w3.org/2000/svg">
<circle cx="25" cy="25" r="25" fill="#FB0000"/>
<path d="M25.1918 34.2386C24.294 34.233 23.4276 34.0824 22.5923 33.7869C21.7628 33.4915 21.0185 33.0114 20.3594 32.3466C19.7003 31.6818 19.1776 30.8011 18.7912 29.7045C18.4105 28.608 18.2202 27.2614 18.2202 25.6648C18.2259 24.1989 18.3935 22.8892 18.723 21.7358C19.0582 20.5767 19.5355 19.5937 20.1548 18.7869C20.7798 17.9801 21.527 17.3665 22.3963 16.946C23.2656 16.5199 24.2401 16.3068 25.3196 16.3068C26.4844 16.3068 27.5128 16.5341 28.4048 16.9886C29.2969 17.4375 30.0128 18.0483 30.5526 18.821C31.098 19.5938 31.4276 20.4602 31.5412 21.4205H27.902C27.7599 20.8125 27.4616 20.3352 27.0071 19.9886C26.5526 19.642 25.9901 19.4688 25.3196 19.4688C24.1832 19.4688 23.3196 19.9631 22.7287 20.9517C22.1435 21.9403 21.8452 23.2841 21.8338 24.983H21.9531C22.2145 24.4659 22.5668 24.0256 23.0099 23.6619C23.4588 23.2926 23.9673 23.0114 24.5355 22.8182C25.1094 22.6193 25.7145 22.5199 26.3509 22.5199C27.3849 22.5199 28.3054 22.7642 29.1122 23.2528C29.919 23.7358 30.5554 24.4006 31.0213 25.2472C31.4872 26.0937 31.7202 27.0625 31.7202 28.1534C31.7202 29.3352 31.4446 30.3864 30.8935 31.3068C30.348 32.2273 29.5838 32.9489 28.6009 33.4716C27.6236 33.9886 26.4872 34.2443 25.1918 34.2386ZM25.1747 31.3409C25.7429 31.3409 26.2514 31.2045 26.7003 30.9318C27.1491 30.6591 27.5014 30.2898 27.7571 29.8239C28.0128 29.358 28.1406 28.8352 28.1406 28.2557C28.1406 27.6761 28.0128 27.1562 27.7571 26.696C27.5071 26.2358 27.1605 25.8693 26.7173 25.5966C26.2741 25.3239 25.7685 25.1875 25.2003 25.1875C24.7741 25.1875 24.3793 25.267 24.0156 25.4261C23.6577 25.5852 23.3423 25.8068 23.0696 26.0909C22.8026 26.375 22.5923 26.7045 22.4389 27.0795C22.2855 27.4489 22.2088 27.8437 22.2088 28.2642C22.2088 28.8267 22.3366 29.3409 22.5923 29.8068C22.8537 30.2727 23.206 30.6449 23.6491 30.9233C24.098 31.2017 24.6065 31.3409 25.1747 31.3409Z" fill="white"/>
</svg>
