<svg width="50" height="50" viewBox="0 0 50 50" fill="none" xmlns="http://www.w3.org/2000/svg">
<circle cx="25" cy="25" r="25" fill="#FFA447"/>
<path d="M24.9563 34.2386C23.6836 34.2386 22.5501 34.0199 21.5558 33.5824C20.5671 33.1392 19.7859 32.5312 19.212 31.7585C18.6438 30.9801 18.3512 30.0824 18.3342 29.0653H22.0501C22.0728 29.4915 22.212 29.8665 22.4677 30.1903C22.729 30.5085 23.0756 30.7557 23.5075 30.9318C23.9393 31.108 24.4251 31.196 24.9648 31.196C25.5273 31.196 26.0245 31.0966 26.4563 30.8977C26.8881 30.6989 27.2262 30.4233 27.4705 30.071C27.7148 29.7187 27.837 29.3125 27.837 28.8523C27.837 28.3864 27.7063 27.9744 27.445 27.6165C27.1893 27.2528 26.82 26.9687 26.337 26.7642C25.8597 26.5597 25.2915 26.4574 24.6325 26.4574H23.0046V23.7472H24.6325C25.1893 23.7472 25.6808 23.6506 26.1069 23.4574C26.5387 23.2642 26.8739 22.9972 27.1126 22.6562C27.3512 22.3097 27.4705 21.9062 27.4705 21.446C27.4705 21.0085 27.3654 20.625 27.1552 20.2955C26.9506 19.9602 26.6609 19.6989 26.2859 19.5114C25.9165 19.3239 25.4847 19.2301 24.9904 19.2301C24.4904 19.2301 24.033 19.321 23.6183 19.5028C23.2035 19.679 22.8711 19.9318 22.6211 20.2614C22.3711 20.5909 22.2376 20.9773 22.2205 21.4205H18.6836C18.7006 20.4148 18.9876 19.5284 19.5444 18.7614C20.1012 17.9943 20.8512 17.3949 21.7944 16.9631C22.7433 16.5256 23.8143 16.3068 25.0075 16.3068C26.212 16.3068 27.266 16.5256 28.1694 16.9631C29.0728 17.4006 29.7745 17.9915 30.2745 18.7358C30.7802 19.4744 31.0302 20.304 31.0245 21.2244C31.0302 22.2017 30.7262 23.017 30.1126 23.6705C29.5046 24.3239 28.712 24.7386 27.7347 24.9148V25.0511C29.0188 25.2159 29.9961 25.6619 30.6665 26.3892C31.3427 27.1108 31.6779 28.0142 31.6722 29.0994C31.6779 30.0938 31.391 30.9773 30.8114 31.75C30.2376 32.5227 29.445 33.1307 28.4336 33.5739C27.4222 34.017 26.2631 34.2386 24.9563 34.2386Z" fill="white"/>
</svg>
