<svg width="50" height="50" viewBox="0 0 50 50" fill="none" xmlns="http://www.w3.org/2000/svg">
<circle cx="25" cy="25" r="25" fill="#39ABE7"/>
<path d="M18.8562 34V31.3409L25.0692 25.5881C25.5977 25.0767 26.0408 24.6165 26.3988 24.2074C26.7624 23.7983 27.038 23.3977 27.2255 23.0057C27.413 22.608 27.5067 22.179 27.5067 21.7188C27.5067 21.2074 27.3903 20.767 27.1573 20.3977C26.9244 20.0227 26.6062 19.7358 26.2028 19.5369C25.7994 19.3324 25.342 19.2301 24.8306 19.2301C24.2965 19.2301 23.8306 19.3381 23.4329 19.554C23.0352 19.7699 22.7283 20.0795 22.5124 20.483C22.2965 20.8864 22.1886 21.3665 22.1886 21.9233H18.6857C18.6857 20.7812 18.9442 19.7898 19.4613 18.9489C19.9783 18.108 20.7028 17.4574 21.6346 16.9972C22.5664 16.5369 23.6403 16.3068 24.8562 16.3068C26.1062 16.3068 27.1942 16.5284 28.1204 16.9716C29.0522 17.4091 29.7766 18.017 30.2937 18.7955C30.8107 19.5739 31.0692 20.4659 31.0692 21.4716C31.0692 22.1307 30.9386 22.7812 30.6772 23.4233C30.4215 24.0653 29.9641 24.7784 29.305 25.5625C28.646 26.3409 27.717 27.2756 26.5181 28.3665L23.9698 30.8636V30.983H31.2994V34H18.8562Z" fill="white"/>
</svg>
