<svg width="430" height="45" viewBox="0 0 430 45" fill="none" xmlns="http://www.w3.org/2000/svg">
<g filter="url(#filter0_d_309_1217)">
<path d="M-2.82654 21.4469C-13.9303 2.06237 0.302868 -22.0355 22.6394 -21.669L435.579 -14.8926C447.557 -14.696 456.008 -3.07721 452.506 8.37914L448.57 21.2524C443.977 36.2793 422.245 34.8238 419.696 19.3185C418.679 13.129 413.884 8.24483 407.715 7.11279L376.387 1.3646C367.938 -0.185627 359.233 0.466894 351.109 3.25926L331.927 9.85331C321.287 13.5106 309.726 13.4728 299.111 9.74623L276.541 1.82275C271.219 -0.0456123 265.619 -1 259.978 -1H202.978C194.785 -1 186.718 1.01325 179.485 4.86266L176.753 6.31684C165.66 12.2214 152.75 13.7321 140.593 10.5481L117.5 4.5L89.1137 0.391459C83.5959 -0.407173 78.3192 3.00438 76.7423 8.35205C73.7915 18.3593 59.9118 19.3135 55.7675 9.73867C54.3436 6.44898 51.4259 4.0437 47.925 3.27349L46.2145 2.89718C37.1162 0.895575 28.5 7.82229 28.5 17.1381V25.6112C28.5 28.7089 27.124 31.6466 24.7443 33.6298C21.5585 36.2846 17.1033 36.8017 13.3942 34.9471L7.18874 31.8444C3.47909 29.9895 0.400187 27.08 -1.66132 23.4811L-2.82654 21.4469Z" fill="url(#paint0_linear_309_1217)"/>
</g>
<defs>
<filter id="filter0_d_309_1217" x="-10.6814" y="-21.6731" width="467.986" height="65.7223" filterUnits="userSpaceOnUse" color-interpolation-filters="sRGB">
<feFlood flood-opacity="0" result="BackgroundImageFix"/>
<feColorMatrix in="SourceAlpha" type="matrix" values="0 0 0 0 0 0 0 0 0 0 0 0 0 0 0 0 0 0 127 0" result="hardAlpha"/>
<feOffset dy="4"/>
<feGaussianBlur stdDeviation="2"/>
<feComposite in2="hardAlpha" operator="out"/>
<feColorMatrix type="matrix" values="0 0 0 0 0 0 0 0 0 0 0 0 0 0 0 0 0 0 0.25 0"/>
<feBlend mode="normal" in2="BackgroundImageFix" result="effect1_dropShadow_309_1217"/>
<feBlend mode="normal" in="SourceGraphic" in2="effect1_dropShadow_309_1217" result="shape"/>
</filter>
<linearGradient id="paint0_linear_309_1217" x1="151.5" y1="-159" x2="210.5" y2="44" gradientUnits="userSpaceOnUse">
<stop stop-color="#FB0000"/>
<stop offset="1" stop-color="#FFD233"/>
</linearGradient>
</defs>
</svg>
